<?xml version="1.0" encoding="UTF-8" standalone="no"?>
<!DOCTYPE svg PUBLIC "-//W3C//DTD SVG 1.1//EN"
 "http://www.w3.org/Graphics/SVG/1.1/DTD/svg11.dtd">
<!-- Generated by graphviz version 2.38.0 (20140413.2041)
 -->
<!-- Title: snakemake_dag Pages: 1 -->
<svg width="773pt" height="1052pt"
 viewBox="0.00 0.00 772.78 1052.00" xmlns="http://www.w3.org/2000/svg" xmlns:xlink="http://www.w3.org/1999/xlink">
<g id="graph0" class="graph" transform="scale(1 1) rotate(0) translate(4 1048)">
<title>snakemake_dag</title>
<polygon fill="white" stroke="none" points="-4,4 -4,-1048 768.779,-1048 768.779,4 -4,4"/>
<!-- 0 -->
<g id="node1" class="node"><title>0</title>
<path fill="none" stroke="#d8c356" stroke-width="2" d="M388.624,-36C388.624,-36 358.624,-36 358.624,-36 352.624,-36 346.624,-30 346.624,-24 346.624,-24 346.624,-12 346.624,-12 346.624,-6 352.624,-0 358.624,-0 358.624,-0 388.624,-0 388.624,-0 394.624,-0 400.624,-6 400.624,-12 400.624,-12 400.624,-24 400.624,-24 400.624,-30 394.624,-36 388.624,-36"/>
<text text-anchor="middle" x="373.624" y="-15" font-family="sans" font-size="10.00">all</text>
</g>
<!-- 1 -->
<g id="node2" class="node"><title>1</title>
<path fill="none" stroke="#56d8c1" stroke-width="2" d="M401.364,-108C401.364,-108 345.883,-108 345.883,-108 339.883,-108 333.883,-102 333.883,-96 333.883,-96 333.883,-84 333.883,-84 333.883,-78 339.883,-72 345.883,-72 345.883,-72 401.364,-72 401.364,-72 407.364,-72 413.364,-78 413.364,-84 413.364,-84 413.364,-96 413.364,-96 413.364,-102 407.364,-108 401.364,-108"/>
<text text-anchor="middle" x="373.624" y="-87" font-family="sans" font-size="10.00">gen_REPORT</text>
</g>
<!-- 1&#45;&gt;0 -->
<g id="edge1" class="edge"><title>1&#45;&gt;0</title>
<path fill="none" stroke="grey" stroke-width="2" d="M373.624,-71.6966C373.624,-63.9827 373.624,-54.7125 373.624,-46.1124"/>
<polygon fill="grey" stroke="grey" stroke-width="2" points="377.124,-46.1043 373.624,-36.1043 370.124,-46.1044 377.124,-46.1043"/>
</g>
<!-- 2 -->
<g id="node3" class="node"><title>2</title>
<path fill="none" stroke="#68d856" stroke-width="2" d="M400.87,-180C400.87,-180 346.377,-180 346.377,-180 340.377,-180 334.377,-174 334.377,-168 334.377,-168 334.377,-156 334.377,-156 334.377,-150 340.377,-144 346.377,-144 346.377,-144 400.87,-144 400.87,-144 406.87,-144 412.87,-150 412.87,-156 412.87,-156 412.87,-168 412.87,-168 412.87,-174 406.87,-180 400.87,-180"/>
<text text-anchor="middle" x="373.624" y="-159" font-family="sans" font-size="10.00">MetaP_Fisher</text>
</g>
<!-- 2&#45;&gt;1 -->
<g id="edge2" class="edge"><title>2&#45;&gt;1</title>
<path fill="none" stroke="grey" stroke-width="2" d="M373.624,-143.697C373.624,-135.983 373.624,-126.712 373.624,-118.112"/>
<polygon fill="grey" stroke="grey" stroke-width="2" points="377.124,-118.104 373.624,-108.104 370.124,-118.104 377.124,-118.104"/>
</g>
<!-- 3 -->
<g id="node4" class="node"><title>3</title>
<path fill="none" stroke="#59d856" stroke-width="2" d="M117.371,-252C117.371,-252 11.8762,-252 11.8762,-252 5.87623,-252 -0.123772,-246 -0.123772,-240 -0.123772,-240 -0.123772,-228 -0.123772,-228 -0.123772,-222 5.87623,-216 11.8762,-216 11.8762,-216 117.371,-216 117.371,-216 123.371,-216 129.371,-222 129.371,-228 129.371,-228 129.371,-240 129.371,-240 129.371,-246 123.371,-252 117.371,-252"/>
<text text-anchor="middle" x="64.6235" y="-236" font-family="sans" font-size="10.00">affy_gene2gene_analysis</text>
<text text-anchor="middle" x="64.6235" y="-226" font-family="sans" font-size="10.00">sample: bevCombind</text>
</g>
<!-- 3&#45;&gt;2 -->
<g id="edge3" class="edge"><title>3&#45;&gt;2</title>
<path fill="none" stroke="grey" stroke-width="2" d="M129.592,-218.059C132.645,-217.362 135.667,-216.673 138.624,-216 202.641,-201.428 276.512,-184.798 324.08,-174.113"/>
<polygon fill="grey" stroke="grey" stroke-width="2" points="325.122,-177.467 334.112,-171.861 323.588,-170.637 325.122,-177.467"/>
</g>
<!-- 4 -->
<g id="node5" class="node"><title>4</title>
<path fill="none" stroke="#569ad8" stroke-width="2" d="M233.875,-252C233.875,-252 159.372,-252 159.372,-252 153.372,-252 147.372,-246 147.372,-240 147.372,-240 147.372,-228 147.372,-228 147.372,-222 153.372,-216 159.372,-216 159.372,-216 233.875,-216 233.875,-216 239.875,-216 245.875,-222 245.875,-228 245.875,-228 245.875,-240 245.875,-240 245.875,-246 239.875,-252 233.875,-252"/>
<text text-anchor="middle" x="196.624" y="-231" font-family="sans" font-size="10.00">MP_term_analysis</text>
</g>
<!-- 4&#45;&gt;2 -->
<g id="edge4" class="edge"><title>4&#45;&gt;2</title>
<path fill="none" stroke="grey" stroke-width="2" d="M239.923,-215.876C265.627,-205.71 298.286,-192.795 324.891,-182.273"/>
<polygon fill="grey" stroke="grey" stroke-width="2" points="326.383,-185.447 334.395,-178.514 323.808,-178.937 326.383,-185.447"/>
</g>
<!-- 5 -->
<g id="node6" class="node"><title>5</title>
<path fill="none" stroke="#d86e56" stroke-width="2" d="M350.931,-252C350.931,-252 276.316,-252 276.316,-252 270.316,-252 264.316,-246 264.316,-240 264.316,-240 264.316,-228 264.316,-228 264.316,-222 270.316,-216 276.316,-216 276.316,-216 350.931,-216 350.931,-216 356.931,-216 362.931,-222 362.931,-228 362.931,-228 362.931,-240 362.931,-240 362.931,-246 356.931,-252 350.931,-252"/>
<text text-anchor="middle" x="313.624" y="-231" font-family="sans" font-size="10.00">GO_term_analysis</text>
</g>
<!-- 5&#45;&gt;2 -->
<g id="edge5" class="edge"><title>5&#45;&gt;2</title>
<path fill="none" stroke="grey" stroke-width="2" d="M328.455,-215.697C335.648,-207.305 344.42,-197.07 352.314,-187.861"/>
<polygon fill="grey" stroke="grey" stroke-width="2" points="355.112,-189.975 358.963,-180.104 349.797,-185.419 355.112,-189.975"/>
</g>
<!-- 6 -->
<g id="node7" class="node"><title>6</title>
<path fill="none" stroke="#566bd8" stroke-width="2" d="M614.379,-252C614.379,-252 518.868,-252 518.868,-252 512.868,-252 506.868,-246 506.868,-240 506.868,-240 506.868,-228 506.868,-228 506.868,-222 512.868,-216 518.868,-216 518.868,-216 614.379,-216 614.379,-216 620.379,-216 626.379,-222 626.379,-228 626.379,-228 626.379,-240 626.379,-240 626.379,-246 620.379,-252 614.379,-252"/>
<text text-anchor="middle" x="566.624" y="-236" font-family="sans" font-size="10.00">affy_MP_term_analysis</text>
<text text-anchor="middle" x="566.624" y="-226" font-family="sans" font-size="10.00">sample: bevCombind</text>
</g>
<!-- 6&#45;&gt;2 -->
<g id="edge6" class="edge"><title>6&#45;&gt;2</title>
<path fill="none" stroke="grey" stroke-width="2" d="M519.41,-215.876C490.034,-205.221 452.327,-191.545 422.621,-180.771"/>
<polygon fill="grey" stroke="grey" stroke-width="2" points="423.471,-177.356 412.877,-177.237 421.085,-183.937 423.471,-177.356"/>
</g>
<!-- 7 -->
<g id="node8" class="node"><title>7</title>
<path fill="none" stroke="#80d856" stroke-width="2" d="M476.367,-252C476.367,-252 392.88,-252 392.88,-252 386.88,-252 380.88,-246 380.88,-240 380.88,-240 380.88,-228 380.88,-228 380.88,-222 386.88,-216 392.88,-216 392.88,-216 476.367,-216 476.367,-216 482.367,-216 488.367,-222 488.367,-228 488.367,-228 488.367,-240 488.367,-240 488.367,-246 482.367,-252 476.367,-252"/>
<text text-anchor="middle" x="434.624" y="-231" font-family="sans" font-size="10.00">gene2gene_analysis</text>
</g>
<!-- 7&#45;&gt;2 -->
<g id="edge7" class="edge"><title>7&#45;&gt;2</title>
<path fill="none" stroke="grey" stroke-width="2" d="M419.545,-215.697C412.232,-207.305 403.314,-197.07 395.288,-187.861"/>
<polygon fill="grey" stroke="grey" stroke-width="2" points="397.737,-185.344 388.529,-180.104 392.46,-189.943 397.737,-185.344"/>
</g>
<!-- 8 -->
<g id="node9" class="node"><title>8</title>
<path fill="none" stroke="#56c1d8" stroke-width="2" d="M752.935,-252C752.935,-252 656.312,-252 656.312,-252 650.312,-252 644.312,-246 644.312,-240 644.312,-240 644.312,-228 644.312,-228 644.312,-222 650.312,-216 656.312,-216 656.312,-216 752.935,-216 752.935,-216 758.935,-216 764.935,-222 764.935,-228 764.935,-228 764.935,-240 764.935,-240 764.935,-246 758.935,-252 752.935,-252"/>
<text text-anchor="middle" x="704.624" y="-236" font-family="sans" font-size="10.00">affy_GO_term_analysis</text>
<text text-anchor="middle" x="704.624" y="-226" font-family="sans" font-size="10.00">sample: bevCombind</text>
</g>
<!-- 8&#45;&gt;2 -->
<g id="edge8" class="edge"><title>8&#45;&gt;2</title>
<path fill="none" stroke="grey" stroke-width="2" d="M644.448,-218.016C641.467,-217.324 638.513,-216.648 635.624,-216 561.756,-199.437 475.645,-182.462 422.887,-172.326"/>
<polygon fill="grey" stroke="grey" stroke-width="2" points="423.274,-168.836 412.794,-170.392 421.957,-175.711 423.274,-168.836"/>
</g>
<!-- 9 -->
<g id="node10" class="node"><title>9</title>
<path fill="none" stroke="#d85656" stroke-width="2" d="M373.409,-324C373.409,-324 253.838,-324 253.838,-324 247.838,-324 241.838,-318 241.838,-312 241.838,-312 241.838,-300 241.838,-300 241.838,-294 247.838,-288 253.838,-288 253.838,-288 373.409,-288 373.409,-288 379.409,-288 385.409,-294 385.409,-300 385.409,-300 385.409,-312 385.409,-312 385.409,-318 379.409,-324 373.409,-324"/>
<text text-anchor="middle" x="313.624" y="-303" font-family="sans" font-size="10.00">gene_WES_mutation_matrix</text>
</g>
<!-- 9&#45;&gt;4 -->
<g id="edge9" class="edge"><title>9&#45;&gt;4</title>
<path fill="none" stroke="grey" stroke-width="2" d="M285.002,-287.876C269.704,-278.724 250.68,-267.342 234.206,-257.485"/>
<polygon fill="grey" stroke="grey" stroke-width="2" points="235.733,-254.32 225.355,-252.19 232.139,-260.327 235.733,-254.32"/>
</g>
<!-- 9&#45;&gt;5 -->
<g id="edge10" class="edge"><title>9&#45;&gt;5</title>
<path fill="none" stroke="grey" stroke-width="2" d="M313.624,-287.697C313.624,-279.983 313.624,-270.712 313.624,-262.112"/>
<polygon fill="grey" stroke="grey" stroke-width="2" points="317.124,-262.104 313.624,-252.104 310.124,-262.104 317.124,-262.104"/>
</g>
<!-- 9&#45;&gt;7 -->
<g id="edge11" class="edge"><title>9&#45;&gt;7</title>
<path fill="none" stroke="grey" stroke-width="2" d="M343.223,-287.876C359.191,-278.639 379.083,-267.131 396.229,-257.212"/>
<polygon fill="grey" stroke="grey" stroke-width="2" points="398.007,-260.227 404.91,-252.19 394.501,-254.168 398.007,-260.227"/>
</g>
<!-- 10 -->
<g id="node11" class="node"><title>10</title>
<path fill="none" stroke="#56d86b" stroke-width="2" d="M370.088,-396C370.088,-396 257.159,-396 257.159,-396 251.159,-396 245.159,-390 245.159,-384 245.159,-384 245.159,-372 245.159,-372 245.159,-366 251.159,-360 257.159,-360 257.159,-360 370.088,-360 370.088,-360 376.088,-360 382.088,-366 382.088,-372 382.088,-372 382.088,-384 382.088,-384 382.088,-390 376.088,-396 370.088,-396"/>
<text text-anchor="middle" x="313.624" y="-375" font-family="sans" font-size="10.00">gen_PASS_high_moderate</text>
</g>
<!-- 10&#45;&gt;9 -->
<g id="edge12" class="edge"><title>10&#45;&gt;9</title>
<path fill="none" stroke="grey" stroke-width="2" d="M313.624,-359.697C313.624,-351.983 313.624,-342.712 313.624,-334.112"/>
<polygon fill="grey" stroke="grey" stroke-width="2" points="317.124,-334.104 313.624,-324.104 310.124,-334.104 317.124,-334.104"/>
</g>
<!-- 11 -->
<g id="node12" class="node"><title>11</title>
<path fill="none" stroke="#56d8a9" stroke-width="2" d="M332.078,-468C332.078,-468 295.169,-468 295.169,-468 289.169,-468 283.169,-462 283.169,-456 283.169,-456 283.169,-444 283.169,-444 283.169,-438 289.169,-432 295.169,-432 295.169,-432 332.078,-432 332.078,-432 338.078,-432 344.078,-438 344.078,-444 344.078,-444 344.078,-456 344.078,-456 344.078,-462 338.078,-468 332.078,-468"/>
<text text-anchor="middle" x="313.624" y="-447" font-family="sans" font-size="10.00">filterSNPs</text>
</g>
<!-- 11&#45;&gt;10 -->
<g id="edge13" class="edge"><title>11&#45;&gt;10</title>
<path fill="none" stroke="grey" stroke-width="2" d="M313.624,-431.697C313.624,-423.983 313.624,-414.712 313.624,-406.112"/>
<polygon fill="grey" stroke="grey" stroke-width="2" points="317.124,-406.104 313.624,-396.104 310.124,-406.104 317.124,-406.104"/>
</g>
<!-- 12 -->
<g id="node13" class="node"><title>12</title>
<path fill="none" stroke="#56d89a" stroke-width="2" d="M329.588,-540C329.588,-540 297.659,-540 297.659,-540 291.659,-540 285.659,-534 285.659,-528 285.659,-528 285.659,-516 285.659,-516 285.659,-510 291.659,-504 297.659,-504 297.659,-504 329.588,-504 329.588,-504 335.588,-504 341.588,-510 341.588,-516 341.588,-516 341.588,-528 341.588,-528 341.588,-534 335.588,-540 329.588,-540"/>
<text text-anchor="middle" x="313.624" y="-519" font-family="sans" font-size="10.00">getSNPs</text>
</g>
<!-- 12&#45;&gt;11 -->
<g id="edge14" class="edge"><title>12&#45;&gt;11</title>
<path fill="none" stroke="grey" stroke-width="2" d="M313.624,-503.697C313.624,-495.983 313.624,-486.712 313.624,-478.112"/>
<polygon fill="grey" stroke="grey" stroke-width="2" points="317.124,-478.104 313.624,-468.104 310.124,-478.104 317.124,-478.104"/>
</g>
<!-- 13 -->
<g id="node14" class="node"><title>13</title>
<path fill="none" stroke="#d8ac56" stroke-width="2" d="M336.53,-612C336.53,-612 290.717,-612 290.717,-612 284.717,-612 278.717,-606 278.717,-600 278.717,-600 278.717,-588 278.717,-588 278.717,-582 284.717,-576 290.717,-576 290.717,-576 336.53,-576 336.53,-576 342.53,-576 348.53,-582 348.53,-588 348.53,-588 348.53,-600 348.53,-600 348.53,-606 342.53,-612 336.53,-612"/>
<text text-anchor="middle" x="313.624" y="-591" font-family="sans" font-size="10.00">filter_results</text>
</g>
<!-- 13&#45;&gt;12 -->
<g id="edge15" class="edge"><title>13&#45;&gt;12</title>
<path fill="none" stroke="grey" stroke-width="2" d="M313.624,-575.697C313.624,-567.983 313.624,-558.712 313.624,-550.112"/>
<polygon fill="grey" stroke="grey" stroke-width="2" points="317.124,-550.104 313.624,-540.104 310.124,-550.104 317.124,-550.104"/>
</g>
<!-- 14 -->
<g id="node15" class="node"><title>14</title>
<path fill="none" stroke="#afd856" stroke-width="2" d="M328.624,-684C328.624,-684 298.624,-684 298.624,-684 292.624,-684 286.624,-678 286.624,-672 286.624,-672 286.624,-660 286.624,-660 286.624,-654 292.624,-648 298.624,-648 298.624,-648 328.624,-648 328.624,-648 334.624,-648 340.624,-654 340.624,-660 340.624,-660 340.624,-672 340.624,-672 340.624,-678 334.624,-684 328.624,-684"/>
<text text-anchor="middle" x="313.624" y="-663" font-family="sans" font-size="10.00">snpeff</text>
</g>
<!-- 14&#45;&gt;13 -->
<g id="edge16" class="edge"><title>14&#45;&gt;13</title>
<path fill="none" stroke="grey" stroke-width="2" d="M313.624,-647.697C313.624,-639.983 313.624,-630.712 313.624,-622.112"/>
<polygon fill="grey" stroke="grey" stroke-width="2" points="317.124,-622.104 313.624,-612.104 310.124,-622.104 317.124,-622.104"/>
</g>
<!-- 15 -->
<g id="node16" class="node"><title>15</title>
<path fill="none" stroke="#56d8d8" stroke-width="2" d="M335.895,-756C335.895,-756 291.352,-756 291.352,-756 285.352,-756 279.352,-750 279.352,-744 279.352,-744 279.352,-732 279.352,-732 279.352,-726 285.352,-720 291.352,-720 291.352,-720 335.895,-720 335.895,-720 341.895,-720 347.895,-726 347.895,-732 347.895,-732 347.895,-744 347.895,-744 347.895,-750 341.895,-756 335.895,-756"/>
<text text-anchor="middle" x="313.624" y="-735" font-family="sans" font-size="10.00">annotation3</text>
</g>
<!-- 15&#45;&gt;14 -->
<g id="edge17" class="edge"><title>15&#45;&gt;14</title>
<path fill="none" stroke="grey" stroke-width="2" d="M313.624,-719.697C313.624,-711.983 313.624,-702.712 313.624,-694.112"/>
<polygon fill="grey" stroke="grey" stroke-width="2" points="317.124,-694.104 313.624,-684.104 310.124,-694.104 317.124,-694.104"/>
</g>
<!-- 16 -->
<g id="node17" class="node"><title>16</title>
<path fill="none" stroke="#56d882" stroke-width="2" d="M335.895,-828C335.895,-828 291.352,-828 291.352,-828 285.352,-828 279.352,-822 279.352,-816 279.352,-816 279.352,-804 279.352,-804 279.352,-798 285.352,-792 291.352,-792 291.352,-792 335.895,-792 335.895,-792 341.895,-792 347.895,-798 347.895,-804 347.895,-804 347.895,-816 347.895,-816 347.895,-822 341.895,-828 335.895,-828"/>
<text text-anchor="middle" x="313.624" y="-807" font-family="sans" font-size="10.00">annotation2</text>
</g>
<!-- 16&#45;&gt;15 -->
<g id="edge18" class="edge"><title>16&#45;&gt;15</title>
<path fill="none" stroke="grey" stroke-width="2" d="M313.624,-791.697C313.624,-783.983 313.624,-774.712 313.624,-766.112"/>
<polygon fill="grey" stroke="grey" stroke-width="2" points="317.124,-766.104 313.624,-756.104 310.124,-766.104 317.124,-766.104"/>
</g>
<!-- 17 -->
<g id="node18" class="node"><title>17</title>
<path fill="none" stroke="#c6d856" stroke-width="2" d="M335.895,-900C335.895,-900 291.352,-900 291.352,-900 285.352,-900 279.352,-894 279.352,-888 279.352,-888 279.352,-876 279.352,-876 279.352,-870 285.352,-864 291.352,-864 291.352,-864 335.895,-864 335.895,-864 341.895,-864 347.895,-870 347.895,-876 347.895,-876 347.895,-888 347.895,-888 347.895,-894 341.895,-900 335.895,-900"/>
<text text-anchor="middle" x="313.624" y="-879" font-family="sans" font-size="10.00">annotation1</text>
</g>
<!-- 17&#45;&gt;16 -->
<g id="edge19" class="edge"><title>17&#45;&gt;16</title>
<path fill="none" stroke="grey" stroke-width="2" d="M313.624,-863.697C313.624,-855.983 313.624,-846.712 313.624,-838.112"/>
<polygon fill="grey" stroke="grey" stroke-width="2" points="317.124,-838.104 313.624,-828.104 310.124,-838.104 317.124,-838.104"/>
</g>
<!-- 18 -->
<g id="node19" class="node"><title>18</title>
<path fill="none" stroke="#d88556" stroke-width="2" d="M335.304,-972C335.304,-972 291.943,-972 291.943,-972 285.943,-972 279.943,-966 279.943,-960 279.943,-960 279.943,-948 279.943,-948 279.943,-942 285.943,-936 291.943,-936 291.943,-936 335.304,-936 335.304,-936 341.304,-936 347.304,-942 347.304,-948 347.304,-948 347.304,-960 347.304,-960 347.304,-966 341.304,-972 335.304,-972"/>
<text text-anchor="middle" x="313.624" y="-951" font-family="sans" font-size="10.00">normalizem</text>
</g>
<!-- 18&#45;&gt;17 -->
<g id="edge20" class="edge"><title>18&#45;&gt;17</title>
<path fill="none" stroke="grey" stroke-width="2" d="M313.624,-935.697C313.624,-927.983 313.624,-918.712 313.624,-910.112"/>
<polygon fill="grey" stroke="grey" stroke-width="2" points="317.124,-910.104 313.624,-900.104 310.124,-910.104 317.124,-910.104"/>
</g>
<!-- 19 -->
<g id="node20" class="node"><title>19</title>
<path fill="none" stroke="#56a9d8" stroke-width="2" d="M356.559,-1044C356.559,-1044 270.688,-1044 270.688,-1044 264.688,-1044 258.688,-1038 258.688,-1032 258.688,-1032 258.688,-1020 258.688,-1020 258.688,-1014 264.688,-1008 270.688,-1008 270.688,-1008 356.559,-1008 356.559,-1008 362.559,-1008 368.559,-1014 368.559,-1020 368.559,-1020 368.559,-1032 368.559,-1032 368.559,-1038 362.559,-1044 356.559,-1044"/>
<text text-anchor="middle" x="313.624" y="-1028" font-family="sans" font-size="10.00">decomp</text>
<text text-anchor="middle" x="313.624" y="-1018" font-family="sans" font-size="10.00">sample: bevCombind</text>
</g>
<!-- 19&#45;&gt;18 -->
<g id="edge21" class="edge"><title>19&#45;&gt;18</title>
<path fill="none" stroke="grey" stroke-width="2" d="M313.624,-1007.7C313.624,-999.983 313.624,-990.712 313.624,-982.112"/>
<polygon fill="grey" stroke="grey" stroke-width="2" points="317.124,-982.104 313.624,-972.104 310.124,-982.104 317.124,-982.104"/>
</g>
</g>
</svg>
