<?xml version="1.0" encoding="UTF-8" standalone="no"?>
<!DOCTYPE svg PUBLIC "-//W3C//DTD SVG 1.1//EN"
 "http://www.w3.org/Graphics/SVG/1.1/DTD/svg11.dtd">
<!-- Generated by graphviz version 2.38.0 (20140413.2041)
 -->
<!-- Title: snakemake_dag Pages: 1 -->
<svg width="772pt" height="1052pt"
 viewBox="0.00 0.00 772.28 1052.00" xmlns="http://www.w3.org/2000/svg" xmlns:xlink="http://www.w3.org/1999/xlink">
<g id="graph0" class="graph" transform="scale(1 1) rotate(0) translate(4 1048)">
<title>snakemake_dag</title>
<polygon fill="white" stroke="none" points="-4,4 -4,-1048 768.281,-1048 768.281,4 -4,4"/>
<!-- 0 -->
<g id="node1" class="node"><title>0</title>
<path fill="none" stroke="#5673d8" stroke-width="2" stroke-dasharray="5,2" d="M369.125,-36C369.125,-36 339.125,-36 339.125,-36 333.125,-36 327.125,-30 327.125,-24 327.125,-24 327.125,-12 327.125,-12 327.125,-6 333.125,-0 339.125,-0 339.125,-0 369.125,-0 369.125,-0 375.125,-0 381.125,-6 381.125,-12 381.125,-12 381.125,-24 381.125,-24 381.125,-30 375.125,-36 369.125,-36"/>
<text text-anchor="middle" x="354.125" y="-15" font-family="sans" font-size="10.00">all</text>
</g>
<!-- 1 -->
<g id="node2" class="node"><title>1</title>
<path fill="none" stroke="#56d8c1" stroke-width="2" stroke-dasharray="5,2" d="M381.866,-108C381.866,-108 326.385,-108 326.385,-108 320.385,-108 314.385,-102 314.385,-96 314.385,-96 314.385,-84 314.385,-84 314.385,-78 320.385,-72 326.385,-72 326.385,-72 381.866,-72 381.866,-72 387.866,-72 393.866,-78 393.866,-84 393.866,-84 393.866,-96 393.866,-96 393.866,-102 387.866,-108 381.866,-108"/>
<text text-anchor="middle" x="354.125" y="-87" font-family="sans" font-size="10.00">gen_REPORT</text>
</g>
<!-- 1&#45;&gt;0 -->
<g id="edge1" class="edge"><title>1&#45;&gt;0</title>
<path fill="none" stroke="grey" stroke-width="2" d="M354.125,-71.6966C354.125,-63.9827 354.125,-54.7125 354.125,-46.1124"/>
<polygon fill="grey" stroke="grey" stroke-width="2" points="357.626,-46.1043 354.125,-36.1043 350.626,-46.1044 357.626,-46.1043"/>
</g>
<!-- 2 -->
<g id="node3" class="node"><title>2</title>
<path fill="none" stroke="#56a2d8" stroke-width="2" stroke-dasharray="5,2" d="M381.372,-180C381.372,-180 326.879,-180 326.879,-180 320.879,-180 314.879,-174 314.879,-168 314.879,-168 314.879,-156 314.879,-156 314.879,-150 320.879,-144 326.879,-144 326.879,-144 381.372,-144 381.372,-144 387.372,-144 393.372,-150 393.372,-156 393.372,-156 393.372,-168 393.372,-168 393.372,-174 387.372,-180 381.372,-180"/>
<text text-anchor="middle" x="354.125" y="-159" font-family="sans" font-size="10.00">MetaP_Fisher</text>
</g>
<!-- 2&#45;&gt;1 -->
<g id="edge2" class="edge"><title>2&#45;&gt;1</title>
<path fill="none" stroke="grey" stroke-width="2" d="M354.125,-143.697C354.125,-135.983 354.125,-126.712 354.125,-118.112"/>
<polygon fill="grey" stroke="grey" stroke-width="2" points="357.626,-118.104 354.125,-108.104 350.626,-118.104 357.626,-118.104"/>
</g>
<!-- 3 -->
<g id="node4" class="node"><title>3</title>
<path fill="none" stroke="#88d856" stroke-width="2" stroke-dasharray="5,2" d="M86.3768,-252C86.3768,-252 11.8742,-252 11.8742,-252 5.87419,-252 -0.12581,-246 -0.12581,-240 -0.12581,-240 -0.12581,-228 -0.12581,-228 -0.12581,-222 5.87419,-216 11.8742,-216 11.8742,-216 86.3768,-216 86.3768,-216 92.3768,-216 98.3768,-222 98.3768,-228 98.3768,-228 98.3768,-240 98.3768,-240 98.3768,-246 92.3768,-252 86.3768,-252"/>
<text text-anchor="middle" x="49.1255" y="-231" font-family="sans" font-size="10.00">MP_term_analysis</text>
</g>
<!-- 3&#45;&gt;2 -->
<g id="edge3" class="edge"><title>3&#45;&gt;2</title>
<path fill="none" stroke="grey" stroke-width="2" d="M98.4185,-218.283C101.359,-217.489 104.277,-216.722 107.125,-216 175.337,-198.71 255.07,-182.274 305.088,-172.413"/>
<polygon fill="grey" stroke="grey" stroke-width="2" points="305.85,-175.831 314.989,-170.471 304.502,-168.962 305.85,-175.831"/>
</g>
<!-- 4 -->
<g id="node5" class="node"><title>4</title>
<path fill="none" stroke="#d8bc56" stroke-width="2" stroke-dasharray="5,2" d="M465.881,-252C465.881,-252 370.37,-252 370.37,-252 364.37,-252 358.37,-246 358.37,-240 358.37,-240 358.37,-228 358.37,-228 358.37,-222 364.37,-216 370.37,-216 370.37,-216 465.881,-216 465.881,-216 471.881,-216 477.881,-222 477.881,-228 477.881,-228 477.881,-240 477.881,-240 477.881,-246 471.881,-252 465.881,-252"/>
<text text-anchor="middle" x="418.125" y="-236" font-family="sans" font-size="10.00">affy_MP_term_analysis</text>
<text text-anchor="middle" x="418.125" y="-226" font-family="sans" font-size="10.00">sample: bevCombind</text>
</g>
<!-- 4&#45;&gt;2 -->
<g id="edge4" class="edge"><title>4&#45;&gt;2</title>
<path fill="none" stroke="grey" stroke-width="2" d="M402.305,-215.697C394.555,-207.22 385.086,-196.864 376.601,-187.583"/>
<polygon fill="grey" stroke="grey" stroke-width="2" points="379.095,-185.123 369.764,-180.104 373.928,-189.846 379.095,-185.123"/>
</g>
<!-- 5 -->
<g id="node6" class="node"><title>5</title>
<path fill="none" stroke="#70d856" stroke-width="2" stroke-dasharray="5,2" d="M613.873,-252C613.873,-252 508.378,-252 508.378,-252 502.378,-252 496.378,-246 496.378,-240 496.378,-240 496.378,-228 496.378,-228 496.378,-222 502.378,-216 508.378,-216 508.378,-216 613.873,-216 613.873,-216 619.873,-216 625.873,-222 625.873,-228 625.873,-228 625.873,-240 625.873,-240 625.873,-246 619.873,-252 613.873,-252"/>
<text text-anchor="middle" x="561.125" y="-236" font-family="sans" font-size="10.00">affy_gene2gene_analysis</text>
<text text-anchor="middle" x="561.125" y="-226" font-family="sans" font-size="10.00">sample: bevCombind</text>
</g>
<!-- 5&#45;&gt;2 -->
<g id="edge5" class="edge"><title>5&#45;&gt;2</title>
<path fill="none" stroke="grey" stroke-width="2" d="M510.752,-215.966C477.999,-204.89 435.508,-190.521 403.048,-179.544"/>
<polygon fill="grey" stroke="grey" stroke-width="2" points="403.912,-176.142 393.318,-176.254 401.67,-182.773 403.912,-176.142"/>
</g>
<!-- 6 -->
<g id="node7" class="node"><title>6</title>
<path fill="none" stroke="#56d8d8" stroke-width="2" stroke-dasharray="5,2" d="M211.869,-252C211.869,-252 128.382,-252 128.382,-252 122.382,-252 116.382,-246 116.382,-240 116.382,-240 116.382,-228 116.382,-228 116.382,-222 122.382,-216 128.382,-216 128.382,-216 211.869,-216 211.869,-216 217.869,-216 223.869,-222 223.869,-228 223.869,-228 223.869,-240 223.869,-240 223.869,-246 217.869,-252 211.869,-252"/>
<text text-anchor="middle" x="170.125" y="-231" font-family="sans" font-size="10.00">gene2gene_analysis</text>
</g>
<!-- 6&#45;&gt;2 -->
<g id="edge6" class="edge"><title>6&#45;&gt;2</title>
<path fill="none" stroke="grey" stroke-width="2" d="M215.137,-215.876C242.451,-205.485 277.319,-192.22 305.298,-181.576"/>
<polygon fill="grey" stroke="grey" stroke-width="2" points="306.781,-184.756 314.883,-177.929 304.292,-178.214 306.781,-184.756"/>
</g>
<!-- 7 -->
<g id="node8" class="node"><title>7</title>
<path fill="none" stroke="#d88d56" stroke-width="2" stroke-dasharray="5,2" d="M752.437,-252C752.437,-252 655.814,-252 655.814,-252 649.814,-252 643.814,-246 643.814,-240 643.814,-240 643.814,-228 643.814,-228 643.814,-222 649.814,-216 655.814,-216 655.814,-216 752.437,-216 752.437,-216 758.437,-216 764.437,-222 764.437,-228 764.437,-228 764.437,-240 764.437,-240 764.437,-246 758.437,-252 752.437,-252"/>
<text text-anchor="middle" x="704.125" y="-236" font-family="sans" font-size="10.00">affy_GO_term_analysis</text>
<text text-anchor="middle" x="704.125" y="-226" font-family="sans" font-size="10.00">sample: bevCombind</text>
</g>
<!-- 7&#45;&gt;2 -->
<g id="edge7" class="edge"><title>7&#45;&gt;2</title>
<path fill="none" stroke="grey" stroke-width="2" d="M643.96,-217.97C640.976,-217.289 638.019,-216.629 635.125,-216 554.29,-198.433 459.636,-181.28 403.399,-171.445"/>
<polygon fill="grey" stroke="grey" stroke-width="2" points="403.81,-167.964 393.357,-169.695 402.608,-174.86 403.81,-167.964"/>
</g>
<!-- 8 -->
<g id="node9" class="node"><title>8</title>
<path fill="none" stroke="#bed856" stroke-width="2" stroke-dasharray="5,2" d="M328.433,-252C328.433,-252 253.818,-252 253.818,-252 247.818,-252 241.818,-246 241.818,-240 241.818,-240 241.818,-228 241.818,-228 241.818,-222 247.818,-216 253.818,-216 253.818,-216 328.433,-216 328.433,-216 334.433,-216 340.433,-222 340.433,-228 340.433,-228 340.433,-240 340.433,-240 340.433,-246 334.433,-252 328.433,-252"/>
<text text-anchor="middle" x="291.125" y="-231" font-family="sans" font-size="10.00">GO_term_analysis</text>
</g>
<!-- 8&#45;&gt;2 -->
<g id="edge8" class="edge"><title>8&#45;&gt;2</title>
<path fill="none" stroke="grey" stroke-width="2" d="M306.699,-215.697C314.328,-207.22 323.648,-196.864 332.001,-187.583"/>
<polygon fill="grey" stroke="grey" stroke-width="2" points="334.643,-189.879 338.732,-180.104 329.44,-185.196 334.643,-189.879"/>
</g>
<!-- 9 -->
<g id="node10" class="node"><title>9</title>
<path fill="none" stroke="#d8a456" stroke-width="2" stroke-dasharray="5,2" d="M229.911,-324C229.911,-324 110.34,-324 110.34,-324 104.34,-324 98.34,-318 98.34,-312 98.34,-312 98.34,-300 98.34,-300 98.34,-294 104.34,-288 110.34,-288 110.34,-288 229.911,-288 229.911,-288 235.911,-288 241.911,-294 241.911,-300 241.911,-300 241.911,-312 241.911,-312 241.911,-318 235.911,-324 229.911,-324"/>
<text text-anchor="middle" x="170.125" y="-303" font-family="sans" font-size="10.00">gene_WES_mutation_matrix</text>
</g>
<!-- 9&#45;&gt;3 -->
<g id="edge9" class="edge"><title>9&#45;&gt;3</title>
<path fill="none" stroke="grey" stroke-width="2" d="M140.526,-287.876C124.558,-278.639 104.666,-267.131 87.5198,-257.212"/>
<polygon fill="grey" stroke="grey" stroke-width="2" points="89.2478,-254.168 78.8392,-252.19 85.7425,-260.227 89.2478,-254.168"/>
</g>
<!-- 9&#45;&gt;6 -->
<g id="edge10" class="edge"><title>9&#45;&gt;6</title>
<path fill="none" stroke="grey" stroke-width="2" d="M170.125,-287.697C170.125,-279.983 170.125,-270.712 170.125,-262.112"/>
<polygon fill="grey" stroke="grey" stroke-width="2" points="173.626,-262.104 170.125,-252.104 166.626,-262.104 173.626,-262.104"/>
</g>
<!-- 9&#45;&gt;8 -->
<g id="edge11" class="edge"><title>9&#45;&gt;8</title>
<path fill="none" stroke="grey" stroke-width="2" d="M199.725,-287.876C215.693,-278.639 235.585,-267.131 252.731,-257.212"/>
<polygon fill="grey" stroke="grey" stroke-width="2" points="254.509,-260.227 261.412,-252.19 251.003,-254.168 254.509,-260.227"/>
</g>
<!-- 10 -->
<g id="node11" class="node"><title>10</title>
<path fill="none" stroke="#56d8a2" stroke-width="2" stroke-dasharray="5,2" d="M226.59,-396C226.59,-396 113.661,-396 113.661,-396 107.661,-396 101.661,-390 101.661,-384 101.661,-384 101.661,-372 101.661,-372 101.661,-366 107.661,-360 113.661,-360 113.661,-360 226.59,-360 226.59,-360 232.59,-360 238.59,-366 238.59,-372 238.59,-372 238.59,-384 238.59,-384 238.59,-390 232.59,-396 226.59,-396"/>
<text text-anchor="middle" x="170.125" y="-375" font-family="sans" font-size="10.00">gen_PASS_high_moderate</text>
</g>
<!-- 10&#45;&gt;9 -->
<g id="edge12" class="edge"><title>10&#45;&gt;9</title>
<path fill="none" stroke="grey" stroke-width="2" d="M170.125,-359.697C170.125,-351.983 170.125,-342.712 170.125,-334.112"/>
<polygon fill="grey" stroke="grey" stroke-width="2" points="173.626,-334.104 170.125,-324.104 166.626,-334.104 173.626,-334.104"/>
</g>
<!-- 11 -->
<g id="node12" class="node"><title>11</title>
<path fill="none" stroke="#a7d856" stroke-width="2" stroke-dasharray="5,2" d="M188.58,-468C188.58,-468 151.671,-468 151.671,-468 145.671,-468 139.671,-462 139.671,-456 139.671,-456 139.671,-444 139.671,-444 139.671,-438 145.671,-432 151.671,-432 151.671,-432 188.58,-432 188.58,-432 194.58,-432 200.58,-438 200.58,-444 200.58,-444 200.58,-456 200.58,-456 200.58,-462 194.58,-468 188.58,-468"/>
<text text-anchor="middle" x="170.125" y="-447" font-family="sans" font-size="10.00">filterSNPs</text>
</g>
<!-- 11&#45;&gt;10 -->
<g id="edge13" class="edge"><title>11&#45;&gt;10</title>
<path fill="none" stroke="grey" stroke-width="2" d="M170.125,-431.697C170.125,-423.983 170.125,-414.712 170.125,-406.112"/>
<polygon fill="grey" stroke="grey" stroke-width="2" points="173.626,-406.104 170.125,-396.104 166.626,-406.104 173.626,-406.104"/>
</g>
<!-- 12 -->
<g id="node13" class="node"><title>12</title>
<path fill="none" stroke="#568ad8" stroke-width="2" stroke-dasharray="5,2" d="M186.09,-540C186.09,-540 154.161,-540 154.161,-540 148.161,-540 142.161,-534 142.161,-528 142.161,-528 142.161,-516 142.161,-516 142.161,-510 148.161,-504 154.161,-504 154.161,-504 186.09,-504 186.09,-504 192.09,-504 198.09,-510 198.09,-516 198.09,-516 198.09,-528 198.09,-528 198.09,-534 192.09,-540 186.09,-540"/>
<text text-anchor="middle" x="170.125" y="-519" font-family="sans" font-size="10.00">getSNPs</text>
</g>
<!-- 12&#45;&gt;11 -->
<g id="edge14" class="edge"><title>12&#45;&gt;11</title>
<path fill="none" stroke="grey" stroke-width="2" d="M170.125,-503.697C170.125,-495.983 170.125,-486.712 170.125,-478.112"/>
<polygon fill="grey" stroke="grey" stroke-width="2" points="173.626,-478.104 170.125,-468.104 166.626,-478.104 173.626,-478.104"/>
</g>
<!-- 13 -->
<g id="node14" class="node"><title>13</title>
<path fill="none" stroke="#56c1d8" stroke-width="2" stroke-dasharray="5,2" d="M193.032,-612C193.032,-612 147.219,-612 147.219,-612 141.219,-612 135.219,-606 135.219,-600 135.219,-600 135.219,-588 135.219,-588 135.219,-582 141.219,-576 147.219,-576 147.219,-576 193.032,-576 193.032,-576 199.032,-576 205.032,-582 205.032,-588 205.032,-588 205.032,-600 205.032,-600 205.032,-606 199.032,-612 193.032,-612"/>
<text text-anchor="middle" x="170.125" y="-591" font-family="sans" font-size="10.00">filter_results</text>
</g>
<!-- 13&#45;&gt;12 -->
<g id="edge15" class="edge"><title>13&#45;&gt;12</title>
<path fill="none" stroke="grey" stroke-width="2" d="M170.125,-575.697C170.125,-567.983 170.125,-558.712 170.125,-550.112"/>
<polygon fill="grey" stroke="grey" stroke-width="2" points="173.626,-550.104 170.125,-540.104 166.626,-550.104 173.626,-550.104"/>
</g>
<!-- 14 -->
<g id="node15" class="node"><title>14</title>
<path fill="none" stroke="#d85656" stroke-width="2" stroke-dasharray="5,2" d="M185.125,-684C185.125,-684 155.125,-684 155.125,-684 149.125,-684 143.125,-678 143.125,-672 143.125,-672 143.125,-660 143.125,-660 143.125,-654 149.125,-648 155.125,-648 155.125,-648 185.125,-648 185.125,-648 191.125,-648 197.125,-654 197.125,-660 197.125,-660 197.125,-672 197.125,-672 197.125,-678 191.125,-684 185.125,-684"/>
<text text-anchor="middle" x="170.125" y="-663" font-family="sans" font-size="10.00">snpeff</text>
</g>
<!-- 14&#45;&gt;13 -->
<g id="edge16" class="edge"><title>14&#45;&gt;13</title>
<path fill="none" stroke="grey" stroke-width="2" d="M170.125,-647.697C170.125,-639.983 170.125,-630.712 170.125,-622.112"/>
<polygon fill="grey" stroke="grey" stroke-width="2" points="173.626,-622.104 170.125,-612.104 166.626,-622.104 173.626,-622.104"/>
</g>
<!-- 15 -->
<g id="node16" class="node"><title>15</title>
<path fill="none" stroke="#56d873" stroke-width="2" stroke-dasharray="5,2" d="M192.397,-756C192.397,-756 147.854,-756 147.854,-756 141.854,-756 135.854,-750 135.854,-744 135.854,-744 135.854,-732 135.854,-732 135.854,-726 141.854,-720 147.854,-720 147.854,-720 192.397,-720 192.397,-720 198.397,-720 204.397,-726 204.397,-732 204.397,-732 204.397,-744 204.397,-744 204.397,-750 198.397,-756 192.397,-756"/>
<text text-anchor="middle" x="170.125" y="-735" font-family="sans" font-size="10.00">annotation3</text>
</g>
<!-- 15&#45;&gt;14 -->
<g id="edge17" class="edge"><title>15&#45;&gt;14</title>
<path fill="none" stroke="grey" stroke-width="2" d="M170.125,-719.697C170.125,-711.983 170.125,-702.712 170.125,-694.112"/>
<polygon fill="grey" stroke="grey" stroke-width="2" points="173.626,-694.104 170.125,-684.104 166.626,-694.104 173.626,-694.104"/>
</g>
<!-- 16 -->
<g id="node17" class="node"><title>16</title>
<path fill="none" stroke="#d6d856" stroke-width="2" stroke-dasharray="5,2" d="M192.397,-828C192.397,-828 147.854,-828 147.854,-828 141.854,-828 135.854,-822 135.854,-816 135.854,-816 135.854,-804 135.854,-804 135.854,-798 141.854,-792 147.854,-792 147.854,-792 192.397,-792 192.397,-792 198.397,-792 204.397,-798 204.397,-804 204.397,-804 204.397,-816 204.397,-816 204.397,-822 198.397,-828 192.397,-828"/>
<text text-anchor="middle" x="170.125" y="-807" font-family="sans" font-size="10.00">annotation2</text>
</g>
<!-- 16&#45;&gt;15 -->
<g id="edge18" class="edge"><title>16&#45;&gt;15</title>
<path fill="none" stroke="grey" stroke-width="2" d="M170.125,-791.697C170.125,-783.983 170.125,-774.712 170.125,-766.112"/>
<polygon fill="grey" stroke="grey" stroke-width="2" points="173.626,-766.104 170.125,-756.104 166.626,-766.104 173.626,-766.104"/>
</g>
<!-- 17 -->
<g id="node18" class="node"><title>17</title>
<path fill="none" stroke="#59d856" stroke-width="2" stroke-dasharray="5,2" d="M192.397,-900C192.397,-900 147.854,-900 147.854,-900 141.854,-900 135.854,-894 135.854,-888 135.854,-888 135.854,-876 135.854,-876 135.854,-870 141.854,-864 147.854,-864 147.854,-864 192.397,-864 192.397,-864 198.397,-864 204.397,-870 204.397,-876 204.397,-876 204.397,-888 204.397,-888 204.397,-894 198.397,-900 192.397,-900"/>
<text text-anchor="middle" x="170.125" y="-879" font-family="sans" font-size="10.00">annotation1</text>
</g>
<!-- 17&#45;&gt;16 -->
<g id="edge19" class="edge"><title>17&#45;&gt;16</title>
<path fill="none" stroke="grey" stroke-width="2" d="M170.125,-863.697C170.125,-855.983 170.125,-846.712 170.125,-838.112"/>
<polygon fill="grey" stroke="grey" stroke-width="2" points="173.626,-838.104 170.125,-828.104 166.626,-838.104 173.626,-838.104"/>
</g>
<!-- 18 -->
<g id="node19" class="node"><title>18</title>
<path fill="none" stroke="#d86e56" stroke-width="2" stroke-dasharray="5,2" d="M191.806,-972C191.806,-972 148.445,-972 148.445,-972 142.445,-972 136.445,-966 136.445,-960 136.445,-960 136.445,-948 136.445,-948 136.445,-942 142.445,-936 148.445,-936 148.445,-936 191.806,-936 191.806,-936 197.806,-936 203.806,-942 203.806,-948 203.806,-948 203.806,-960 203.806,-960 203.806,-966 197.806,-972 191.806,-972"/>
<text text-anchor="middle" x="170.125" y="-951" font-family="sans" font-size="10.00">normalizem</text>
</g>
<!-- 18&#45;&gt;17 -->
<g id="edge20" class="edge"><title>18&#45;&gt;17</title>
<path fill="none" stroke="grey" stroke-width="2" d="M170.125,-935.697C170.125,-927.983 170.125,-918.712 170.125,-910.112"/>
<polygon fill="grey" stroke="grey" stroke-width="2" points="173.626,-910.104 170.125,-900.104 166.626,-910.104 173.626,-910.104"/>
</g>
<!-- 19 -->
<g id="node20" class="node"><title>19</title>
<path fill="none" stroke="#56d88a" stroke-width="2" stroke-dasharray="5,2" d="M213.061,-1044C213.061,-1044 127.19,-1044 127.19,-1044 121.19,-1044 115.19,-1038 115.19,-1032 115.19,-1032 115.19,-1020 115.19,-1020 115.19,-1014 121.19,-1008 127.19,-1008 127.19,-1008 213.061,-1008 213.061,-1008 219.061,-1008 225.061,-1014 225.061,-1020 225.061,-1020 225.061,-1032 225.061,-1032 225.061,-1038 219.061,-1044 213.061,-1044"/>
<text text-anchor="middle" x="170.125" y="-1028" font-family="sans" font-size="10.00">decomp</text>
<text text-anchor="middle" x="170.125" y="-1018" font-family="sans" font-size="10.00">sample: bevCombind</text>
</g>
<!-- 19&#45;&gt;18 -->
<g id="edge21" class="edge"><title>19&#45;&gt;18</title>
<path fill="none" stroke="grey" stroke-width="2" d="M170.125,-1007.7C170.125,-999.983 170.125,-990.712 170.125,-982.112"/>
<polygon fill="grey" stroke="grey" stroke-width="2" points="173.626,-982.104 170.125,-972.104 166.626,-982.104 173.626,-982.104"/>
</g>
</g>
</svg>
