<?xml version="1.0" encoding="UTF-8" standalone="no"?>
<!DOCTYPE svg PUBLIC "-//W3C//DTD SVG 1.1//EN"
 "http://www.w3.org/Graphics/SVG/1.1/DTD/svg11.dtd">
<!-- Generated by graphviz version 2.38.0 (20140413.2041)
 -->
<!-- Title: snakemake_dag Pages: 1 -->
<svg width="616pt" height="188pt"
 viewBox="0.00 0.00 616.01 188.00" xmlns="http://www.w3.org/2000/svg" xmlns:xlink="http://www.w3.org/1999/xlink">
<g id="graph0" class="graph" transform="scale(1 1) rotate(0) translate(4 184)">
<title>snakemake_dag</title>
<polygon fill="white" stroke="none" points="-4,4 -4,-184 612.009,-184 612.009,4 -4,4"/>
<!-- 0 -->
<g id="node1" class="node"><title>0</title>
<path fill="none" stroke="#d8ac56" stroke-width="2" d="M319.143,-36C319.143,-36 289.143,-36 289.143,-36 283.143,-36 277.143,-30 277.143,-24 277.143,-24 277.143,-12 277.143,-12 277.143,-6 283.143,-0 289.143,-0 289.143,-0 319.143,-0 319.143,-0 325.143,-0 331.143,-6 331.143,-12 331.143,-12 331.143,-24 331.143,-24 331.143,-30 325.143,-36 319.143,-36"/>
<text text-anchor="middle" x="304.143" y="-15" font-family="sans" font-size="10.00">all</text>
</g>
<!-- 1 -->
<g id="node2" class="node"><title>1</title>
<path fill="none" stroke="#d86e56" stroke-width="2" d="M331.883,-108C331.883,-108 276.402,-108 276.402,-108 270.402,-108 264.402,-102 264.402,-96 264.402,-96 264.402,-84 264.402,-84 264.402,-78 270.402,-72 276.402,-72 276.402,-72 331.883,-72 331.883,-72 337.883,-72 343.883,-78 343.883,-84 343.883,-84 343.883,-96 343.883,-96 343.883,-102 337.883,-108 331.883,-108"/>
<text text-anchor="middle" x="304.143" y="-87" font-family="sans" font-size="10.00">gen_REPORT</text>
</g>
<!-- 1&#45;&gt;0 -->
<g id="edge1" class="edge"><title>1&#45;&gt;0</title>
<path fill="none" stroke="grey" stroke-width="2" d="M304.143,-71.6966C304.143,-63.9827 304.143,-54.7125 304.143,-46.1124"/>
<polygon fill="grey" stroke="grey" stroke-width="2" points="307.643,-46.1043 304.143,-36.1043 300.643,-46.1044 307.643,-46.1043"/>
</g>
<!-- 2 -->
<g id="node3" class="node"><title>2</title>
<path fill="none" stroke="#d8c356" stroke-width="2" d="M126.428,-180C126.428,-180 11.8571,-180 11.8571,-180 5.85713,-180 -0.142873,-174 -0.142873,-168 -0.142873,-168 -0.142873,-156 -0.142873,-156 -0.142873,-150 5.85713,-144 11.8571,-144 11.8571,-144 126.428,-144 126.428,-144 132.428,-144 138.428,-150 138.428,-156 138.428,-156 138.428,-168 138.428,-168 138.428,-174 132.428,-180 126.428,-180"/>
<text text-anchor="middle" x="69.1426" y="-164" font-family="sans" font-size="10.00">individual_metap_CNV_MP</text>
<text text-anchor="middle" x="69.1426" y="-154" font-family="sans" font-size="10.00">sample: bevCombind</text>
</g>
<!-- 2&#45;&gt;1 -->
<g id="edge2" class="edge"><title>2&#45;&gt;1</title>
<path fill="none" stroke="grey" stroke-width="2" d="M126.33,-143.966C165.49,-132.301 216.914,-116.983 254.382,-105.822"/>
<polygon fill="grey" stroke="grey" stroke-width="2" points="255.488,-109.145 264.073,-102.936 253.49,-102.436 255.488,-109.145"/>
</g>
<!-- 3 -->
<g id="node4" class="node"><title>3</title>
<path fill="none" stroke="#d89556" stroke-width="2" d="M283.484,-180C283.484,-180 168.801,-180 168.801,-180 162.801,-180 156.801,-174 156.801,-168 156.801,-168 156.801,-156 156.801,-156 156.801,-150 162.801,-144 168.801,-144 168.801,-144 283.484,-144 283.484,-144 289.484,-144 295.484,-150 295.484,-156 295.484,-156 295.484,-168 295.484,-168 295.484,-174 289.484,-180 283.484,-180"/>
<text text-anchor="middle" x="226.143" y="-164" font-family="sans" font-size="10.00">individual_metap_CNV_GO</text>
<text text-anchor="middle" x="226.143" y="-154" font-family="sans" font-size="10.00">sample: bevCombind</text>
</g>
<!-- 3&#45;&gt;1 -->
<g id="edge3" class="edge"><title>3&#45;&gt;1</title>
<path fill="none" stroke="grey" stroke-width="2" d="M245.423,-143.697C255.058,-135.05 266.871,-124.449 277.37,-115.027"/>
<polygon fill="grey" stroke="grey" stroke-width="2" points="279.979,-117.388 285.083,-108.104 275.303,-112.179 279.979,-117.388"/>
</g>
<!-- 4 -->
<g id="node5" class="node"><title>4</title>
<path fill="none" stroke="#56c1d8" stroke-width="2" d="M440.433,-180C440.433,-180 325.852,-180 325.852,-180 319.852,-180 313.852,-174 313.852,-168 313.852,-168 313.852,-156 313.852,-156 313.852,-150 319.852,-144 325.852,-144 325.852,-144 440.433,-144 440.433,-144 446.433,-144 452.433,-150 452.433,-156 452.433,-156 452.433,-168 452.433,-168 452.433,-174 446.433,-180 440.433,-180"/>
<text text-anchor="middle" x="383.143" y="-164" font-family="sans" font-size="10.00">individual_metap_SNP_GO</text>
<text text-anchor="middle" x="383.143" y="-154" font-family="sans" font-size="10.00">sample: bevCombind</text>
</g>
<!-- 4&#45;&gt;1 -->
<g id="edge4" class="edge"><title>4&#45;&gt;1</title>
<path fill="none" stroke="grey" stroke-width="2" d="M363.614,-143.697C353.761,-134.965 341.657,-124.24 330.946,-114.75"/>
<polygon fill="grey" stroke="grey" stroke-width="2" points="333.252,-112.117 323.446,-108.104 328.609,-117.356 333.252,-112.117"/>
</g>
<!-- 5 -->
<g id="node6" class="node"><title>5</title>
<path fill="none" stroke="#80d856" stroke-width="2" d="M595.876,-180C595.876,-180 482.409,-180 482.409,-180 476.409,-180 470.409,-174 470.409,-168 470.409,-168 470.409,-156 470.409,-156 470.409,-150 476.409,-144 482.409,-144 482.409,-144 595.876,-144 595.876,-144 601.876,-144 607.876,-150 607.876,-156 607.876,-156 607.876,-168 607.876,-168 607.876,-174 601.876,-180 595.876,-180"/>
<text text-anchor="middle" x="539.143" y="-164" font-family="sans" font-size="10.00">individual_metap_SNP_MP</text>
<text text-anchor="middle" x="539.143" y="-154" font-family="sans" font-size="10.00">sample: bevCombind</text>
</g>
<!-- 5&#45;&gt;1 -->
<g id="edge5" class="edge"><title>5&#45;&gt;1</title>
<path fill="none" stroke="grey" stroke-width="2" d="M481.956,-143.966C442.795,-132.301 391.371,-116.983 353.904,-105.822"/>
<polygon fill="grey" stroke="grey" stroke-width="2" points="354.795,-102.436 344.212,-102.936 352.797,-109.145 354.795,-102.436"/>
</g>
</g>
</svg>
